<svg xmlns="http://www.w3.org/2000/svg" width="1039" height="1026" viewBox="0 0 1039 1026" fill="none">
<path d="M472.35 0.958898C428.484 3.3589 372.617 16.6922 320.484 37.0922C297.15 46.2922 254.617 67.6256 234.35 80.4256C180.884 114.026 123.417 169.626 89.4171 220.826C25.4171 316.826 -5.7829 431.892 0.883769 546.159C3.4171 588.559 7.8171 615.226 18.4838 652.159C51.2838 765.492 117.95 861.892 207.817 925.626C239.15 947.892 276.084 968.559 311.017 983.492C360.084 1004.56 426.75 1020.69 480.084 1024.16L494.35 1025.09V1004.96C494.35 986.692 494.084 984.826 492.084 984.826C490.75 984.826 481.284 984.159 471.017 983.359C382.35 976.692 287.284 938.292 213.284 879.226C136.75 817.892 76.8838 723.892 53.8171 628.826C40.3504 572.959 37.4171 505.359 45.8171 446.159C61.0171 338.292 109.417 240.426 181.284 172.159C217.817 137.359 248.617 115.892 292.35 94.2922C353.417 64.0256 412.617 46.8256 473.55 41.4922C485.95 40.4256 496.35 39.2256 496.617 38.9589C497.017 38.5589 496.75 29.7589 496.084 19.2256C495.284 3.7589 494.617 0.158898 493.017 0.025565C491.95 -0.107768 482.617 0.292232 472.35 0.958898Z" fill="#ffffff"/>
<path d="M523.151 6.9589C522.751 10.4256 522.351 19.6256 522.351 27.4922V41.7589L538.751 42.6922C618.217 47.2256 691.551 72.2922 761.017 118.559C788.084 136.692 808.217 152.826 839.017 181.359C843.417 185.492 847.684 188.826 848.484 188.826C850.084 188.826 851.017 187.092 859.684 165.892L866.084 150.292L852.617 138.292C790.617 83.3589 716.751 41.0922 648.484 21.3589C613.684 11.2256 576.484 4.15889 551.684 2.82556C543.284 2.42556 533.551 1.7589 530.217 1.49223L524.084 0.825557L523.151 6.9589Z" fill="#bfb01a"/>
<path d="M1029.02 34.9589C1026.48 36.1589 1003.95 45.3589 979.017 55.4922C904.351 85.6255 895.017 89.3589 894.351 89.8922C893.151 90.8255 900.351 95.7589 909.684 100.426C921.951 106.692 939.684 118.026 939.684 119.759C939.684 122.026 935.284 128.692 909.151 166.159C857.551 240.292 804.217 308.026 783.417 326.159C777.417 331.226 776.884 333.626 782.217 330.959C793.017 325.359 882.351 258.159 901.417 241.226C913.684 230.426 931.017 211.626 953.017 185.492C961.551 175.226 971.417 163.759 974.751 160.159L980.751 153.492L984.351 156.826C989.284 161.359 1005.82 180.959 1012.88 190.559C1016.08 194.826 1018.88 198.026 1019.28 197.759C1019.55 197.359 1021.95 178.826 1024.48 156.559C1027.02 134.426 1031.15 98.6922 1033.68 77.4922C1036.35 56.1589 1038.62 37.6255 1038.75 36.1589C1039.15 32.6922 1035.15 32.1589 1029.02 34.9589Z" fill="#bfb01a"/>
<path d="M429.417 94.1589C405.15 108.026 394.617 152.692 409.017 180.692C412.35 187.226 418.617 189.892 425.684 187.492C430.484 185.892 431.284 183.892 429.017 179.359C428.217 177.892 426.484 172.292 425.017 166.826C421.817 154.292 423.15 144.159 429.684 130.559C436.75 116.159 443.684 111.492 450.884 116.159C458.884 121.359 463.817 132.959 466.35 151.892C468.484 168.159 469.684 171.092 475.817 174.159C478.617 175.626 481.017 177.226 481.017 177.492C481.017 177.892 476.084 180.559 470.084 183.626C430.217 203.626 404.484 226.159 381.55 261.092C369.284 279.892 350.884 317.759 346.884 332.692C345.15 339.359 341.684 395.226 343.017 396.559C343.284 396.826 346.484 391.092 350.217 383.892C357.55 369.626 373.817 343.892 377.417 340.959C379.417 339.359 379.684 339.492 379.684 342.026C379.684 343.626 378.35 348.159 376.75 351.892C373.95 358.026 373.684 360.959 373.817 378.159C373.95 395.092 374.35 398.959 377.55 409.492C384.617 432.959 394.35 448.426 415.55 469.759C433.95 488.292 446.217 496.026 461.55 498.826L466.484 499.759L454.35 484.692C412.217 432.292 398.217 390.026 405.017 335.759C408.217 310.292 419.95 274.426 431.284 254.959C442.084 236.426 462.35 211.092 464.617 213.226C464.75 213.492 461.15 221.226 456.617 230.426C438.884 265.492 430.217 302.292 430.217 343.226C430.217 378.026 437.95 404.159 454.75 427.092C465.817 442.026 479.95 451.092 498.617 454.959C511.15 457.626 523.417 456.026 545.95 448.692C555.017 445.759 566.35 442.559 571.284 441.492C582.884 438.959 601.15 438.959 606.75 441.359C609.15 442.292 617.284 448.026 625.017 454.159C645.55 470.292 646.884 470.826 664.35 470.826C676.484 470.826 680.084 470.292 685.15 467.892C696.884 462.559 705.684 451.092 711.817 432.959C713.284 428.959 714.35 424.959 714.35 423.892C714.35 421.092 709.017 421.892 696.884 426.292C688.217 429.492 682.75 430.692 672.884 431.226C656.35 432.026 645.417 428.959 631.417 419.492C620.084 411.892 599.684 394.692 599.684 392.826C599.684 389.759 613.817 392.959 643.017 402.826C674.217 413.359 688.35 413.759 707.017 404.959C720.35 398.692 726.217 390.826 728.884 375.892C729.95 370.159 729.95 366.692 729.017 364.026C728.217 361.892 721.55 354.426 714.35 347.359C705.417 338.826 701.017 333.759 701.017 331.759C701.017 330.159 701.817 328.692 702.75 328.692C703.55 328.559 714.884 328.159 727.684 327.626C747.417 326.959 751.017 326.559 751.417 324.692C752.217 320.426 739.95 305.226 715.684 280.426C687.017 250.959 679.15 242.292 676.617 237.092C675.55 235.092 673.417 228.159 671.817 221.626C670.217 215.226 667.817 207.626 666.484 204.959C662.884 198.026 652.084 188.426 642.484 183.492C620.884 172.692 586.617 160.292 557.017 152.692C545.684 149.759 528.217 145.226 518.35 142.692C508.084 140.026 496.217 137.892 490.617 137.626C485.284 137.492 480.484 136.692 479.817 136.026C479.284 135.359 477.417 130.959 475.817 126.159C464.884 94.9589 448.084 83.4922 429.417 94.1589ZM510.75 216.292C508.217 221.892 504.617 232.292 502.884 239.226C487.684 299.359 503.95 350.159 542.217 361.359C551.284 364.026 567.017 364.159 576.884 361.492C586.884 358.959 610.617 349.626 619.55 344.692C623.55 342.559 627.017 341.092 627.417 341.359C629.15 343.226 612.35 359.759 592.084 376.426C561.684 401.359 535.284 406.026 507.417 391.226C484.217 378.959 467.684 348.026 467.684 316.826C467.684 283.226 484.617 238.692 506.084 215.359C510.75 210.292 514.75 206.159 515.017 206.159C515.284 206.159 513.417 210.692 510.75 216.292ZM597.284 224.826C612.884 226.292 618.35 228.826 626.617 238.026C632.484 244.559 633.417 246.826 641.15 271.759C642.35 276.026 643.017 279.492 642.617 279.492C642.217 279.492 638.484 276.826 634.484 273.626C622.75 264.559 619.817 263.492 608.084 263.759C595.417 264.159 590.75 261.892 582.617 250.959C579.15 246.426 574.084 241.892 568.75 238.692C558.35 232.426 551.684 227.492 551.684 226.026C551.684 223.626 577.55 222.959 597.284 224.826ZM541.684 239.092C543.284 251.626 546.35 263.492 549.55 269.759C558.484 287.359 572.35 300.426 587.95 305.626C597.284 308.692 615.55 307.626 628.75 303.226C634.084 301.359 638.35 300.426 638.35 300.959C638.35 303.359 615.017 323.626 608.484 326.826C587.284 337.226 562.484 333.226 547.15 316.826C535.417 304.292 531.017 290.559 531.95 270.292C532.75 257.092 537.684 232.826 539.684 232.826C540.35 232.826 541.284 235.626 541.684 239.092Z" fill="#ffffff"/>
<path d="M530.484 98.8255C523.017 102.292 509.284 115.226 505.817 122.026C503.284 126.692 504.484 128.159 513.684 130.826C521.284 133.226 522.617 132.692 527.017 125.759C532.217 117.892 535.817 114.159 538.351 114.159C541.417 114.159 546.217 119.626 551.017 128.559C553.817 133.892 555.951 136.292 558.084 136.559C560.617 136.959 561.017 136.426 561.017 131.892C561.017 119.759 554.084 103.892 547.017 99.6255C540.217 95.4922 538.084 95.3588 530.484 98.8255Z" fill="#ffffff"/>
<path d="M369.684 146.425C352.217 153.092 327.417 164.159 319.017 169.092C291.017 185.359 251.417 221.225 232.75 247.092C213.417 273.892 195.284 308.025 187.15 332.825C165.417 399.625 169.15 470.559 197.684 531.092C212.084 561.625 230.75 584.692 261.017 609.092C269.417 616.025 295.95 634.292 296.484 633.759C296.75 633.625 296.35 629.359 295.684 624.425C293.817 611.625 295.817 595.759 300.217 588.425L303.55 582.425L286.217 560.692C265.417 534.425 256.884 521.892 247.95 504.025C239.15 486.559 232.617 466.825 227.417 441.759C223.284 422.292 223.017 420.425 223.15 390.825C223.15 365.759 223.684 357.092 226.084 343.492C233.15 302.292 247.55 268.159 271.55 236.292C284.75 218.559 304.084 199.092 311.684 195.625C317.817 192.825 331.684 191.759 331.684 194.025C331.684 194.692 327.55 200.292 322.484 206.425C292.35 242.959 272.617 289.225 265.017 341.092C259.817 376.559 262.484 425.359 271.017 450.959C275.417 464.025 287.284 489.092 294.484 500.692C308.35 522.825 333.684 549.892 350.617 560.825C358.35 565.892 394.35 584.025 395.017 583.225C395.15 582.959 394.884 578.292 394.35 572.825C393.817 567.359 394.084 555.759 394.75 547.092C396.084 531.625 395.95 531.492 392.617 526.425C390.75 523.759 383.15 514.825 375.684 506.825C326.35 453.492 311.417 413.359 313.417 339.625C313.95 318.025 314.75 311.092 317.417 299.492C325.55 265.625 340.084 234.559 361.017 206.159C365.55 200.025 370.084 193.225 371.017 190.959C371.95 188.692 373.684 178.425 374.884 168.159C376.084 157.892 377.417 148.559 377.817 147.225C378.884 143.892 377.017 143.625 369.684 146.425Z" fill="#ffffff"/>
<path d="M936.75 271.359C931.417 275.759 924.484 281.892 921.284 285.225L915.417 291.092L924.217 308.292C933.684 327.225 936.484 333.759 943.284 353.492C959.817 402.159 971.017 477.225 969.417 528.825C967.55 588.159 951.417 659.626 927.817 713.492C889.417 801.092 813.15 882.292 721.684 933.226C673.417 960.026 615.95 977.092 547.684 984.826C534.084 986.426 522.484 988.159 521.817 988.826C521.284 989.359 521.15 997.492 521.684 1006.69L522.617 1023.49H527.15C535.017 1023.49 570.217 1019.49 588.35 1016.69C694.217 999.759 802.217 940.026 877.817 856.826C905.284 826.692 936.217 781.492 955.15 744.159C983.817 687.492 1002.48 622.292 1007.68 561.225C1009.82 536.159 1008.75 475.225 1005.82 452.825C998.75 400.292 981.55 336.692 962.35 291.492C953.817 271.492 949.684 263.492 947.684 263.492C947.017 263.492 942.084 267.092 936.75 271.359Z" fill="#bfb01a"/>
<path d="M862.617 341.626C846.75 349.626 843.15 367.226 854.75 380.292C863.15 390.026 874.617 391.759 885.284 384.959C893.417 379.759 895.55 376.292 896.484 366.692C897.55 355.492 895.15 349.359 887.55 343.892C878.75 337.626 871.684 336.959 862.617 341.626Z" fill="#bfb01a"/>
<path d="M833.55 422.426C833.95 425.626 834.617 510.692 835.017 611.492C835.417 712.292 836.217 797.492 836.617 800.826L837.55 806.826L838.484 798.826C839.017 794.426 839.55 787.226 839.684 782.826C839.95 774.826 839.95 774.826 841.284 779.759C842.217 783.359 843.417 784.826 845.017 784.826C846.484 784.826 848.484 786.159 849.55 787.759L851.684 790.692V787.759C851.684 786.026 852.484 784.826 853.684 784.826C854.75 784.826 855.684 784.159 855.684 783.492C855.684 782.692 855.017 782.159 854.084 782.159C853.15 782.159 855.15 779.359 858.35 775.892C861.684 772.426 863.284 770.426 862.084 771.359C857.15 775.092 859.817 770.159 866.084 763.892C869.684 760.426 875.15 752.692 878.35 746.826C881.55 740.959 888.217 729.492 893.15 721.492L901.95 706.826L903.15 588.826C903.684 523.892 904.217 458.826 904.35 444.159V417.492L868.484 417.092L832.75 416.826L833.55 422.426Z" fill="#bfb01a"/>
<path d="M756.084 441.492C751.55 443.359 746.084 450.559 743.55 457.892C742.217 461.626 742.484 463.092 745.684 469.626C754.617 487.892 776.484 490.426 787.284 474.292C795.284 462.426 791.284 446.559 778.75 441.359C773.284 438.959 761.55 439.092 756.084 441.492Z" fill="#ffffff"/>
<path d="M520.351 487.626C518.217 488.292 511.684 489.359 505.817 490.159C493.951 491.626 474.084 499.626 477.151 501.626C478.217 502.292 480.084 504.559 481.284 506.826C492.617 526.692 495.684 531.359 501.684 537.892C505.951 542.559 515.017 549.492 524.484 555.492C533.151 560.959 540.751 565.626 541.151 565.892C541.684 566.159 540.217 560.692 537.951 553.892C533.817 541.626 533.817 541.226 533.684 513.892V486.159L529.017 486.292C526.484 486.292 522.617 486.959 520.351 487.626Z" fill="#ffffff"/>
<path d="M130.884 503.359C124.484 504.959 117.15 509.892 115.017 514.159C110.484 522.959 114.35 536.959 123.284 544.826C134.75 554.959 151.55 549.226 158.617 532.959C160.217 529.092 160.884 525.359 160.484 522.959C159.284 516.826 153.284 507.759 149.284 505.626C144.484 503.226 135.95 502.159 130.884 503.359Z" fill="#ffffff"/>
<path d="M734.75 513.759L729.017 514.292V705.626C729.017 810.826 729.55 896.826 730.084 896.826C732.084 896.826 745.417 887.492 766.75 871.226C778.084 862.692 790.217 853.892 793.817 851.759C799.684 848.292 800.35 847.492 800.084 843.359C799.95 840.826 799.417 765.492 798.884 675.759L797.95 512.826L769.15 513.092C753.284 513.226 737.817 513.492 734.75 513.759Z" fill="#ffffff"/>
<path d="M630.741 634.231L625.017 634.653V786.126C625.017 869.409 625.55 937.492 626.082 937.492C628.079 937.492 641.391 930.103 662.689 917.226C674.004 910.47 686.118 903.503 689.712 901.814C695.569 899.07 696.235 898.437 695.969 895.164C695.836 893.159 695.303 833.52 694.771 762.481L693.839 633.492L665.085 633.703C649.244 633.809 633.803 634.02 630.741 634.231Z" fill="#bfb01a"/>
<path d="M375.132 674.134L381.017 674.501V806.042C381.017 878.367 380.47 937.492 379.922 937.492C377.869 937.492 364.182 931.076 342.284 919.892C330.65 914.026 318.195 907.976 314.5 906.509C308.477 904.126 307.793 903.576 308.067 900.734C308.204 898.992 308.751 847.201 309.299 785.509L310.257 673.492L339.82 673.676C356.107 673.767 371.984 673.951 375.132 674.134Z" fill="#bfb01a"/>
<path d="M268.02 707.408L273.905 707.642V791.35C273.905 837.375 273.358 875 272.81 875C270.757 875 251 866 232.708 854.5C219 845.882 210.1 839.433 206.405 838.5C200.383 836.983 201.913 834.308 202.187 832.5C202.187 813.392 201.639 817.542 202.187 778.283L203.145 707L232.708 707.117C248.995 707.175 264.872 707.292 268.02 707.408Z" fill="#bfb01a"/>
<path d="M440.884 533.892C426.617 541.359 422.617 554.292 430.751 566.292C434.351 571.626 443.951 576.692 450.751 576.826C457.417 576.826 465.284 572.692 469.951 566.559C473.151 562.426 473.684 560.426 473.684 553.626C473.684 543.492 470.351 538.159 460.884 533.492C452.617 529.226 449.551 529.359 440.884 533.892Z" fill="#ffffff"/>
<path d="M649.817 543.892C644.217 547.359 637.684 556.159 635.817 562.959C633.95 569.892 636.35 576.292 643.684 583.626C650.75 590.692 655.417 592.292 666.484 591.226C685.684 589.359 692.617 561.626 677.417 547.226C669.817 540.026 658.484 538.692 649.817 543.892Z" fill="#bfb01a"/>
<path d="M99.8171 631.759C100.35 665.359 101.284 688.159 102.35 692.426C104.084 700.026 107.417 705.892 134.884 748.692C157.017 783.226 161.95 790.559 168.084 797.759L172.75 803.359L173.684 779.092C174.084 765.759 174.35 715.226 174.084 666.826L173.684 578.826L136.35 578.426L99.0171 578.159L99.8171 631.759Z" fill="#ffffff"/>
<path d="M345.684 596.159C345.017 596.426 342.751 596.959 340.751 597.359C332.751 599.092 323.684 610.959 323.684 619.492C323.684 629.892 333.684 641.359 344.351 642.826C356.084 644.692 369.284 636.159 371.817 625.359C374.217 614.959 373.417 610.559 368.084 604.826C365.417 601.759 362.351 598.826 361.151 598.159C358.617 596.959 347.684 595.359 345.684 596.159Z" fill="#bfb01a"/>
<path d="M415.417 775.092C415.684 870.292 416.217 948.292 416.35 948.559C418.084 950.559 467.15 956.826 482.084 956.826C483.284 956.826 483.684 920.426 483.684 779.492V602.159H449.15H414.75L415.417 775.092Z" fill="#ffffff"/>
<path d="M544.217 628.026C535.15 632.159 531.284 637.892 530.617 647.626C530.084 654.159 530.617 656.292 533.417 661.092C543.017 677.492 566.35 676.826 576.617 660.026C580.217 654.026 580.75 644.026 577.817 638.426C575.684 634.292 569.684 628.559 565.417 626.292C560.75 623.892 551.55 624.559 544.217 628.026Z" fill="#ffffff"/>
<path d="M232.617 644.826C226.617 648.159 220.084 656.826 218.884 662.959C217.817 668.692 220.084 674.826 225.55 680.559C231.15 686.559 235.817 688.826 242.75 688.826C249.284 688.826 258.484 683.759 263.417 677.492C267.017 672.959 267.417 661.492 264.084 654.559C259.15 644.159 243.15 639.092 232.617 644.826Z" fill="#bfb01a"/>
<path d="M555.684 702.159C542.884 702.692 529.151 703.226 525.417 703.359L518.351 703.492V830.959V958.426L533.417 957.492C541.551 956.959 552.617 956.026 557.684 955.359C562.884 954.692 571.284 953.759 576.484 953.226L586.084 952.426L586.884 872.292C587.417 828.292 587.684 771.759 587.417 746.826L587.017 701.492L583.017 701.359C580.884 701.359 568.484 701.626 555.684 702.159Z" fill="#ffffff"/>
<path d="M844.484 792.292C843.284 795.226 844.884 796.559 846.351 794.159C847.951 791.626 847.951 790.159 846.484 790.159C845.817 790.159 844.884 791.092 844.484 792.292Z" fill="black"/>
<path d="M245.417 865.759C244.484 868.426 244.35 870.159 245.15 870.159C246.884 870.159 248.084 866.959 247.417 863.892C247.017 862.159 246.484 862.692 245.417 865.759Z" fill="black"/>
</svg>